<svg width="18" height="16" viewBox="0 0 18 16" fill="none" xmlns="http://www.w3.org/2000/svg">
<path fill-rule="evenodd" clip-rule="evenodd" d="M0 6C0 2.68629 2.68629 0 6 0H12C15.3137 0 18 2.68629 18 6C18 6.55228 17.5523 7 17 7H1C0.447716 7 0 6.55228 0 6ZM6 4C6 4.55228 5.55228 5 5 5C4.44772 5 4 4.55228 4 4C4 3.44772 4.44772 3 5 3C5.55228 3 6 3.44772 6 4ZM9 5C9.55229 5 10 4.55228 10 4C10 3.44772 9.55229 3 9 3C8.44771 3 8 3.44772 8 4C8 4.55228 8.44771 5 9 5ZM14 4C14 4.55228 13.5523 5 13 5C12.4477 5 12 4.55228 12 4C12 3.44772 12.4477 3 13 3C13.5523 3 14 3.44772 14 4Z" fill="#12131A"/>
<path d="M18 14C18 15.1046 17.1046 16 16 16H2C0.89543 16 0 15.1046 0 14C0 13.4477 0.447716 13 1 13H17C17.5523 13 18 13.4477 18 14Z" fill="#12131A"/>
</svg>
